<svg width="27" height="27" viewBox="0 0 27 27" fill="none" xmlns="http://www.w3.org/2000/svg">
<path d="M11.5762 4.3425L2.04749 20.25C1.85103 20.5902 1.74708 20.976 1.74598 21.3688C1.74488 21.7617 1.84667 22.148 2.04122 22.4893C2.23578 22.8307 2.51631 23.1151 2.85491 23.3143C3.19352 23.5136 3.57839 23.6207 3.97124 23.625H23.0287C23.4216 23.6207 23.8065 23.5136 24.1451 23.3143C24.4837 23.1151 24.7642 22.8307 24.9588 22.4893C25.1533 22.148 25.2551 21.7617 25.254 21.3688C25.2529 20.976 25.149 20.5902 24.9525 20.25L15.4237 4.3425C15.2232 4.01187 14.9408 3.73851 14.6038 3.5488C14.2669 3.35908 13.8867 3.25941 13.5 3.25941C13.1133 3.25941 12.7331 3.35908 12.3961 3.5488C12.0592 3.73851 11.7768 4.01187 11.5762 4.3425Z" stroke="#700000" stroke-width="2" stroke-linecap="round" stroke-linejoin="round"/>
<path d="M13.5 10.125V14.625" stroke="#700000" stroke-width="2" stroke-linecap="round" stroke-linejoin="round"/>
<path d="M13.5 19.125H13.51" stroke="#700000" stroke-width="2" stroke-linecap="round" stroke-linejoin="round"/>
</svg>
