<svg width="250" height="239" viewBox="0 0 250 239" fill="none" xmlns="http://www.w3.org/2000/svg">
<path d="M138.5 235C155.7 228.2 220 200.167 250 187C209.2 139 166.334 147 150 157C122.8 175.8 100 181.833 92.0002 182.5C85.2002 188.5 96.8336 192.667 103.5 194C124.3 195.6 140.167 187.667 145.5 183.5C153.9 179.1 152 184.333 150 187.5C140.334 193.833 115.2 206 92.0002 204C68.8002 202 41.6669 194.5 31.0003 191C15.8003 188.2 20.0003 196.5 24.0003 201C82.5003 244 117 240.333 138.5 235Z" fill="#EDEDED"/>
<mask id="mask0_20_469" style="mask-type:alpha" maskUnits="userSpaceOnUse" x="0" y="0" width="218" height="180">
<path d="M218 109C211.689 167.806 218 125 162.5 133.5C79.0002 175 3.68544 221.397 0 109C0 48.801 48.801 0 109 0C169.199 0 218 48.801 218 109Z" fill="white"/>
</mask>
<g mask="url(#mask0_20_469)">
<circle cx="109" cy="109" r="109" fill="#EDEDED"/>
<circle cx="72.5002" cy="102.5" r="12.5" fill="#700000"/>
<path d="M55.0002 136C55.0002 127.163 62.1637 120 71.0002 120H75.0002C83.8368 120 91.0002 127.163 91.0002 136V179H55.0002V136Z" fill="#700000"/>
<circle cx="164.5" cy="87.5" r="12.5" fill="#700000"/>
<path d="M147 121C147 112.163 154.164 105 163 105H167C175.837 105 183 112.163 183 121V143H147V121Z" fill="#700000"/>
<circle cx="116.5" cy="65.5" r="12.5" fill="#700000"/>
<path d="M99.0002 99C99.0002 90.1634 106.164 83 115 83H119C127.837 83 135 90.1634 135 99V162H99.0002V99Z" fill="#700000"/>
</g>
</svg>
